<svg width="154" height="52" viewBox="0 0 154 52" fill="none" xmlns="http://www.w3.org/2000/svg">
<g clip-path="url(#clip0_1_4)">
<rect width="154" height="52" rx="10" fill="#EEEEEE"/>
<path d="M44.9297 10.3789V42H37.7422V20.6523L34.8711 42H29.7734L26.7461 21.1406V42H19.5586V10.3789H30.2031C30.5156 12.2799 30.8477 14.5195 31.1992 17.0977L32.332 25.1445L34.207 10.3789H44.9297ZM64.5195 16.082L62.2539 34.832C61.9023 37.8008 61.6029 39.8255 61.3555 40.9062C61.1211 41.987 60.724 42.8789 60.1641 43.582C59.6042 44.2852 58.8229 44.7995 57.8203 45.125C56.8307 45.4635 55.2422 45.6328 53.0547 45.6328H48.2695V41.4922C49.4935 41.4922 50.2812 41.4336 50.6328 41.3164C50.9844 41.1862 51.1602 40.9062 51.1602 40.4766C51.1602 40.2682 50.9974 39.3633 50.6719 37.7617L46.3555 16.082H53.5234L56.1016 33.5625L57.3516 16.082H64.5195ZM91.5312 10.3789V42H84.3438V20.6523L81.4727 42H76.375L73.3477 21.1406V42H66.1602V10.3789H76.8047C77.1172 12.2799 77.4492 14.5195 77.8008 17.0977L78.9336 25.1445L80.8086 10.3789H91.5312ZM94.832 10.3789H100.984C104.956 10.3789 107.638 10.5612 109.031 10.9258C110.438 11.2904 111.505 11.8893 112.234 12.7227C112.964 13.556 113.419 14.487 113.602 15.5156C113.784 16.5312 113.875 18.5365 113.875 21.5312V32.6055C113.875 35.444 113.738 37.3451 113.465 38.3086C113.204 39.2591 112.742 40.0078 112.078 40.5547C111.414 41.0885 110.594 41.4661 109.617 41.6875C108.641 41.8958 107.169 42 105.203 42H94.832V10.3789ZM103.055 15.7891V36.5898C104.24 36.5898 104.969 36.3555 105.242 35.8867C105.516 35.4049 105.652 34.1094 105.652 32V19.7148C105.652 18.2826 105.607 17.3646 105.516 16.9609C105.424 16.5573 105.216 16.2643 104.891 16.082C104.565 15.8867 103.953 15.7891 103.055 15.7891ZM124.598 10.3789V17.8594C125.249 17.1042 125.971 16.5443 126.766 16.1797C127.573 15.8021 128.445 15.6133 129.383 15.6133C130.464 15.6133 131.401 15.7826 132.195 16.1211C132.99 16.4596 133.595 16.9349 134.012 17.5469C134.428 18.1589 134.676 18.7578 134.754 19.3438C134.845 19.9297 134.891 21.1797 134.891 23.0938V34.7734C134.891 36.6745 134.76 38.0938 134.5 39.0312C134.253 39.9557 133.66 40.763 132.723 41.4531C131.785 42.1302 130.672 42.4688 129.383 42.4688C128.458 42.4688 127.592 42.2669 126.785 41.8633C125.991 41.4596 125.262 40.8542 124.598 40.0469L124.09 42H116.707V10.3789H124.598ZM127 23.4453C127 22.1042 126.915 21.2318 126.746 20.8281C126.577 20.4115 126.245 20.2031 125.75 20.2031C125.268 20.2031 124.956 20.3854 124.812 20.75C124.669 21.1016 124.598 22 124.598 23.4453V34.6172C124.598 36.0104 124.676 36.9023 124.832 37.293C125.001 37.6836 125.327 37.8789 125.809 37.8789C126.303 37.8789 126.622 37.6771 126.766 37.2734C126.922 36.8698 127 35.8997 127 34.3633V23.4453Z" fill="black"/>
</g>
<defs>
<clipPath id="clip0_1_4">
<rect width="154" height="52" rx="10" fill="white"/>
</clipPath>
</defs>
</svg>
